<svg width="25" height="24" viewBox="0 0 25 24" fill="none" xmlns="http://www.w3.org/2000/svg">
<g clip-path="url(#clip0_5_1039)">
<path d="M12.5 2.163C15.704 2.163 16.084 2.175 17.35 2.233C20.602 2.381 22.121 3.924 22.269 7.152C22.327 8.417 22.338 8.797 22.338 12.001C22.338 15.206 22.326 15.585 22.269 16.85C22.12 20.075 20.605 21.621 17.35 21.769C16.084 21.827 15.706 21.839 12.5 21.839C9.296 21.839 8.916 21.827 7.651 21.769C4.391 21.62 2.88 20.07 2.732 16.849C2.674 15.584 2.662 15.205 2.662 12C2.662 8.796 2.675 8.417 2.732 7.151C2.881 3.924 4.396 2.38 7.651 2.232C8.917 2.175 9.296 2.163 12.5 2.163ZM12.5 0C9.241 0 8.833 0.014 7.553 0.072C3.195 0.272 0.773 2.69 0.573 7.052C0.514 8.333 0.5 8.741 0.5 12C0.5 15.259 0.514 15.668 0.572 16.948C0.772 21.306 3.19 23.728 7.552 23.928C8.833 23.986 9.241 24 12.5 24C15.759 24 16.168 23.986 17.448 23.928C21.802 23.728 24.23 21.31 24.427 16.948C24.486 15.668 24.5 15.259 24.5 12C24.5 8.741 24.486 8.333 24.428 7.053C24.232 2.699 21.811 0.273 17.449 0.073C16.168 0.014 15.759 0 12.5 0ZM12.5 5.838C9.097 5.838 6.338 8.597 6.338 12C6.338 15.403 9.097 18.163 12.5 18.163C15.903 18.163 18.662 15.404 18.662 12C18.662 8.597 15.903 5.838 12.5 5.838ZM12.5 16C10.291 16 8.5 14.21 8.5 12C8.5 9.791 10.291 8 12.5 8C14.709 8 16.5 9.791 16.5 12C16.5 14.21 14.709 16 12.5 16ZM18.906 4.155C18.11 4.155 17.465 4.8 17.465 5.595C17.465 6.39 18.11 7.035 18.906 7.035C19.701 7.035 20.345 6.39 20.345 5.595C20.345 4.8 19.701 4.155 18.906 4.155Z" fill="white"/>
</g>
<defs>
<clipPath id="clip0_5_1039">
<rect width="24" height="24" fill="white" transform="translate(0.5)"/>
</clipPath>
</defs>
</svg>
