<svg width="370" height="370" viewBox="0 0 370 370" fill="none" xmlns="http://www.w3.org/2000/svg">
<path fill-rule="evenodd" clip-rule="evenodd" d="M185 22.7859C95.4116 22.7859 22.7859 95.4116 22.7859 185C22.7859 274.588 95.4116 347.214 185 347.214C274.588 347.214 347.214 274.588 347.214 185C347.214 95.4116 274.588 22.7859 185 22.7859ZM0 185C0 82.8273 82.8273 0 185 0C287.173 0 370 82.8273 370 185C370 287.173 287.173 370 185 370C82.8273 370 0 287.173 0 185Z" fill="white"/>
<path fill-rule="evenodd" clip-rule="evenodd" d="M297.121 144.608L163.005 17.9033V184.61L163.005 256.056L71.692 228.375L205.808 351.317L205.808 184.61V113.164L297.121 144.608Z" fill="white"/>
<path d="M16.9706 186.475L137.496 157.722V215.229L16.9706 186.475Z" fill="white"/>
<path d="M353.334 186.475L231.809 157.722V215.229L353.334 186.475Z" fill="white"/>
</svg>
