<svg width="354" height="119" viewBox="0 0 354 119" fill="none" xmlns="http://www.w3.org/2000/svg">
<g opacity="0.9">
<path d="M297.176 1.57843H320.627L334.157 51.1871H334.382V1.57843H354V82.0797H331L317.019 32.3583H316.794V82.0797H297.176V1.57843Z" fill="white"/>
<path d="M240.801 1.57843H288.493V18.716H261.772V32.4711H286.802V48.9321H261.772V64.9422H289.508V82.0797H240.801V1.57843Z" fill="white"/>
<path d="M205.212 38.334H232.271V82.0798H218.065L217.614 74.9767H217.388C216.712 76.7055 215.735 78.1336 214.457 79.2611C213.254 80.3886 211.864 81.253 210.285 81.8543C208.782 82.3804 207.128 82.7562 205.324 82.9817C203.596 83.2072 201.829 83.32 200.025 83.32C194.688 83.32 190.479 82.4556 187.398 80.7268C184.316 78.9229 181.986 76.2545 180.407 72.7218C178.829 69.189 177.814 64.8295 177.363 59.6431C176.987 54.4568 176.799 48.5188 176.799 41.8291C176.799 35.0643 177.175 29.0887 177.927 23.9023C178.754 18.716 180.257 14.3564 182.437 10.8237C184.692 7.29097 187.773 4.62263 191.682 2.81868C195.59 0.939559 200.627 0 206.79 0C210.473 0 213.855 0.48857 216.937 1.46571C220.094 2.44285 222.8 4.02131 225.055 6.20108C227.31 8.38085 229.076 11.1995 230.354 14.6571C231.632 18.0395 232.271 22.1736 232.271 27.0593H211.976C211.976 22.7749 211.601 19.6556 210.849 17.7013C210.097 15.3712 208.481 14.2061 206.001 14.2061C204.272 14.2061 202.881 14.6195 201.829 15.4463C200.852 16.2731 200.1 17.7388 199.574 19.8435C199.123 21.9481 198.823 24.8043 198.672 28.4122C198.522 31.945 198.447 36.4173 198.447 41.8291C198.447 47.241 198.522 51.7508 198.672 55.3587C198.823 58.8915 199.123 61.7102 199.574 63.8148C200.1 65.9194 200.814 67.3851 201.716 68.2119C202.694 69.0387 203.971 69.4521 205.55 69.4521C206.677 69.4521 207.654 69.2266 208.481 68.7756C209.383 68.3246 210.135 67.4978 210.736 66.2952C211.337 65.0174 211.788 63.2886 212.089 61.1088C212.465 58.8539 212.653 55.9976 212.653 52.5401H205.212V38.334Z" fill="white"/>
<path d="M121.779 1.57843H169.471V18.716H142.75V32.4711H167.78V48.9321H142.75V64.9422H170.485V82.0797H121.779V1.57843Z" fill="white"/>
<path d="M85.3999 18.0395L79.6498 52.2018H91.3755L85.6254 18.0395H85.3999ZM98.704 1.57843L118.322 82.0797H95.9981L93.8559 67.9864H77.1693L75.0272 82.0797H53.0415L72.3212 1.57843H98.704Z" fill="white"/>
<path d="M50.7361 1.57843V56.9372C50.7361 66.6334 48.5188 73.4734 44.084 77.4571C39.6493 81.3657 33.11 83.32 24.4661 83.32C15.6718 83.32 9.39558 81.1402 5.63735 76.7806C1.87912 72.4211 0 66.0321 0 57.6137V55.9225H18.9415V59.8686C18.9415 63.702 19.4301 66.2576 20.4072 67.5354C21.4595 68.8132 22.7749 69.4521 24.3533 69.4521C25.9318 69.4521 27.2096 68.8132 28.1867 67.5354C29.239 66.2576 29.7652 63.702 29.7652 59.8686V1.57843H50.7361Z" fill="white"/>
<path fill-rule="evenodd" clip-rule="evenodd" d="M0.977901 96.2979H353.022V117.812H0.977901V96.2979ZM0 118.79V95.32H354V118.79H0ZM343.266 105.67H342.392V101.727H343.242C343.903 101.727 344.375 101.876 344.659 102.173C344.958 102.47 345.107 102.971 345.107 103.675C345.107 104.27 344.958 104.755 344.659 105.13C344.36 105.49 343.895 105.67 343.266 105.67ZM344.871 98.5823H338.001V115.34H342.392V108.627H343.549C343.817 108.627 344.037 108.666 344.21 108.745C344.399 108.807 344.549 108.932 344.659 109.12C344.785 109.292 344.871 109.535 344.918 109.848C344.966 110.161 344.989 110.552 344.989 111.021V112.148V112.828C345.005 113.094 345.021 113.376 345.036 113.673C345.068 113.971 345.107 114.268 345.154 114.565C345.217 114.862 345.304 115.121 345.414 115.34H350.089V115.105C349.947 115.027 349.845 114.948 349.782 114.87L349.593 114.589C349.546 114.495 349.506 114.362 349.475 114.19C349.443 114.017 349.42 113.83 349.404 113.626C349.388 113.407 349.38 113.18 349.38 112.946V112.265V110.833C349.38 109.707 349.184 108.823 348.79 108.181C348.397 107.54 347.673 107.172 346.618 107.078V107.031C347.625 106.875 348.357 106.452 348.814 105.764C349.27 105.076 349.498 104.168 349.498 103.042C349.498 102.4 349.412 101.805 349.239 101.258C349.081 100.71 348.814 100.241 348.436 99.8496C348.074 99.4428 347.594 99.1299 346.996 98.9108C346.414 98.6918 345.705 98.5823 344.871 98.5823ZM326.197 98.5823H336.183V102.15H330.588V105.013H335.829V108.44H330.588V111.772H336.395V115.34H326.197V98.5823ZM314.253 102.29H317.511V115.34H321.902V102.29H325.207V98.5823H314.253V102.29ZM308.994 98.5823H313.385V115.34H308.994V98.5823ZM300.868 105.67H299.994V101.727H300.844C301.505 101.727 301.977 101.876 302.26 102.173C302.559 102.47 302.709 102.971 302.709 103.675C302.709 104.27 302.559 104.755 302.26 105.13C301.961 105.49 301.497 105.67 300.868 105.67ZM302.473 98.5823H295.603V115.34H299.994V108.627H301.151C301.418 108.627 301.639 108.666 301.812 108.745C302.001 108.807 302.15 108.932 302.26 109.12C302.386 109.292 302.473 109.535 302.52 109.848C302.567 110.161 302.591 110.552 302.591 111.021V112.148V112.828C302.607 113.094 302.622 113.376 302.638 113.673C302.67 113.971 302.709 114.268 302.756 114.565C302.819 114.862 302.906 115.121 303.016 115.34H307.69V115.105C307.549 115.027 307.446 114.948 307.383 114.87L307.195 114.589C307.147 114.495 307.108 114.362 307.077 114.19C307.045 114.017 307.021 113.83 307.006 113.626C306.99 113.407 306.982 113.18 306.982 112.946V112.265V110.833C306.982 109.707 306.785 108.823 306.392 108.181C305.998 107.54 305.274 107.172 304.22 107.078V107.031C305.227 106.875 305.959 106.452 306.415 105.764C306.872 105.076 307.1 104.168 307.1 103.042C307.1 102.4 307.014 101.805 306.84 101.258C306.683 100.71 306.415 100.241 306.038 99.8496C305.676 99.4428 305.196 99.1299 304.598 98.9108C304.015 98.6918 303.307 98.5823 302.473 98.5823ZM283.39 98.5823H287.356L289.079 110.176H289.126L290.307 98.5823H294.556L291.676 115.34H286.86L285.396 104.074H285.349L283.885 115.34H279.069L276.189 98.5823H280.439L281.761 110.176H281.808L283.39 98.5823ZM270.185 106.233H264.519V109.191H266.077C266.077 109.91 266.038 110.505 265.959 110.974C265.896 111.428 265.802 111.788 265.676 112.054C265.55 112.304 265.392 112.476 265.204 112.57C265.03 112.664 264.826 112.711 264.59 112.711C264.259 112.711 263.992 112.625 263.787 112.453C263.598 112.281 263.449 111.976 263.339 111.538C263.244 111.099 263.181 110.513 263.15 109.777C263.118 109.026 263.102 108.087 263.102 106.961C263.102 105.834 263.118 104.903 263.15 104.168C263.181 103.417 263.244 102.822 263.339 102.384C263.449 101.946 263.606 101.641 263.811 101.469C264.031 101.297 264.322 101.211 264.684 101.211C265.204 101.211 265.542 101.453 265.699 101.938C265.857 102.345 265.935 102.995 265.935 103.886H270.185C270.185 102.869 270.051 102.009 269.784 101.305C269.516 100.585 269.146 99.9983 268.674 99.5445C268.202 99.0908 267.635 98.7622 266.974 98.5588C266.329 98.3554 265.621 98.2537 264.849 98.2537C263.559 98.2537 262.504 98.4493 261.686 98.8404C260.868 99.216 260.222 99.7714 259.75 100.507C259.294 101.242 258.979 102.15 258.806 103.229C258.648 104.309 258.57 105.553 258.57 106.961C258.57 108.353 258.609 109.59 258.688 110.669C258.782 111.749 258.995 112.656 259.325 113.392C259.656 114.127 260.144 114.682 260.789 115.058C261.434 115.418 262.316 115.598 263.433 115.598C263.811 115.598 264.181 115.574 264.543 115.527C264.92 115.48 265.267 115.402 265.581 115.293C265.912 115.167 266.203 114.988 266.455 114.753C266.722 114.518 266.927 114.221 267.069 113.861H267.116L267.21 115.34H270.185V106.233ZM244.882 98.5823H249.792L252.625 108.909H252.673V98.5823H256.781V115.34H251.964L249.037 104.989H248.99V115.34H244.882V98.5823ZM235.848 109.777C235.817 109.026 235.801 108.087 235.801 106.961C235.801 105.834 235.817 104.903 235.848 104.168C235.88 103.417 235.943 102.822 236.037 102.384C236.147 101.946 236.297 101.641 236.486 101.469C236.69 101.297 236.958 101.211 237.288 101.211C237.619 101.211 237.879 101.297 238.067 101.469C238.272 101.641 238.422 101.946 238.516 102.384C238.626 102.822 238.697 103.417 238.728 104.168C238.76 104.903 238.776 105.834 238.776 106.961C238.776 108.087 238.76 109.026 238.728 109.777C238.697 110.513 238.626 111.099 238.516 111.538C238.422 111.976 238.272 112.281 238.067 112.453C237.879 112.625 237.619 112.711 237.288 112.711C236.958 112.711 236.69 112.625 236.486 112.453C236.297 112.281 236.147 111.976 236.037 111.538C235.943 111.099 235.88 110.513 235.848 109.777ZM231.575 102.971C231.371 104.066 231.268 105.396 231.268 106.961C231.268 108.526 231.371 109.863 231.575 110.974C231.78 112.069 232.118 112.969 232.59 113.673C233.062 114.362 233.684 114.855 234.455 115.152C235.227 115.449 236.171 115.598 237.288 115.598C238.406 115.598 239.35 115.449 240.121 115.152C240.893 114.855 241.514 114.362 241.986 113.673C242.459 112.969 242.797 112.069 243.002 110.974C243.206 109.863 243.308 108.526 243.308 106.961C243.308 105.396 243.206 104.066 243.002 102.971C242.797 101.86 242.459 100.961 241.986 100.272C241.514 99.568 240.893 99.0595 240.121 98.7466C239.35 98.418 238.406 98.2537 237.288 98.2537C236.171 98.2537 235.227 98.418 234.455 98.7466C233.684 99.0595 233.062 99.568 232.59 100.272C232.118 100.961 231.78 101.86 231.575 102.971ZM225.647 103.417V103.018C225.647 102.517 225.544 102.095 225.34 101.751C225.135 101.391 224.82 101.211 224.395 101.211C223.923 101.211 223.577 101.367 223.357 101.68C223.136 101.978 223.026 102.314 223.026 102.689C223.026 103.237 223.199 103.675 223.545 104.004C223.907 104.317 224.356 104.59 224.891 104.825C225.426 105.06 226.001 105.302 226.615 105.553C227.228 105.787 227.803 106.1 228.338 106.492C228.873 106.883 229.314 107.399 229.66 108.041C230.022 108.666 230.203 109.488 230.203 110.505C230.203 112.289 229.691 113.587 228.668 114.401C227.645 115.199 226.166 115.598 224.23 115.598C223.317 115.598 222.507 115.52 221.798 115.363C221.106 115.222 220.516 114.972 220.028 114.612C219.556 114.237 219.194 113.751 218.942 113.157C218.69 112.562 218.564 111.827 218.564 110.951V110.364H222.814V110.763C222.814 111.483 222.947 111.991 223.215 112.289C223.482 112.57 223.829 112.711 224.254 112.711C224.71 112.711 225.056 112.555 225.292 112.242C225.544 111.929 225.67 111.545 225.67 111.092C225.67 110.544 225.497 110.114 225.151 109.801C224.82 109.472 224.395 109.198 223.876 108.979C223.372 108.745 222.821 108.51 222.223 108.275C221.625 108.041 221.067 107.735 220.547 107.36C220.044 106.984 219.619 106.492 219.272 105.881C218.942 105.271 218.777 104.473 218.777 103.487C218.777 101.782 219.233 100.483 220.146 99.5915C221.059 98.6996 222.444 98.2537 224.301 98.2537C226.221 98.2537 227.606 98.6683 228.456 99.4976C229.322 100.311 229.754 101.618 229.754 103.417H225.647ZM201.918 109.66C202.091 109.347 202.351 109.058 202.697 108.792L204.94 111.819C204.767 111.96 204.539 112.093 204.255 112.218C203.988 112.328 203.728 112.382 203.476 112.382C203.24 112.382 203.012 112.335 202.792 112.242C202.587 112.148 202.398 112.015 202.225 111.843C202.052 111.67 201.91 111.467 201.8 111.232C201.706 110.998 201.659 110.747 201.659 110.481C201.659 110.231 201.745 109.957 201.918 109.66ZM202.91 102.854C202.737 102.541 202.65 102.259 202.65 102.009C202.65 101.665 202.768 101.383 203.004 101.164C203.24 100.945 203.539 100.835 203.901 100.835C204.263 100.835 204.562 100.945 204.798 101.164C205.035 101.383 205.153 101.665 205.153 102.009C205.153 102.259 205.05 102.549 204.846 102.877C204.641 103.206 204.279 103.605 203.76 104.074C203.366 103.573 203.083 103.167 202.91 102.854ZM207.537 115.34H212.211L209.945 112.195C210.622 111.537 211.11 110.771 211.409 109.895C211.708 109.018 211.881 108.111 211.928 107.172H208.245C208.214 107.532 208.151 107.884 208.056 108.228C207.978 108.557 207.852 108.862 207.679 109.144L205.766 106.585C206.711 105.991 207.435 105.334 207.938 104.614C208.442 103.879 208.694 103.104 208.694 102.29C208.694 101.712 208.576 101.187 208.34 100.718C208.119 100.233 207.797 99.8183 207.372 99.4741C206.963 99.1299 206.459 98.8639 205.861 98.6761C205.278 98.4884 204.617 98.3945 203.878 98.3945C203.154 98.3945 202.501 98.4884 201.918 98.6761C201.336 98.8639 200.832 99.1299 200.407 99.4741C199.998 99.8183 199.675 100.233 199.439 100.718C199.219 101.187 199.109 101.712 199.109 102.29C199.109 102.948 199.266 103.605 199.581 104.262C199.912 104.903 200.289 105.514 200.714 106.093C199.628 106.671 198.826 107.383 198.306 108.228C197.803 109.058 197.551 109.965 197.551 110.951C197.551 111.749 197.684 112.445 197.952 113.04C198.235 113.618 198.613 114.103 199.085 114.495C199.557 114.87 200.1 115.152 200.714 115.34C201.344 115.512 202.013 115.598 202.721 115.598C203.162 115.598 203.563 115.566 203.925 115.504C204.287 115.441 204.625 115.363 204.94 115.269C205.271 115.16 205.585 115.027 205.884 114.87C206.183 114.714 206.49 114.542 206.805 114.354L207.537 115.34ZM183.221 105.67H184.094C184.724 105.67 185.188 105.49 185.487 105.13C185.786 104.755 185.936 104.27 185.936 103.675C185.936 102.971 185.786 102.47 185.487 102.173C185.204 101.876 184.732 101.727 184.071 101.727H183.221V105.67ZM178.83 98.5823H185.7C186.534 98.5823 187.242 98.6918 187.824 98.9108C188.423 99.1299 188.903 99.4428 189.265 99.8496C189.642 100.241 189.91 100.71 190.067 101.258C190.24 101.805 190.327 102.4 190.327 103.042C190.327 104.168 190.099 105.076 189.642 105.764C189.186 106.452 188.454 106.875 187.447 107.031V107.078C188.501 107.172 189.225 107.54 189.619 108.181C190.012 108.823 190.209 109.707 190.209 110.833V112.265V112.946C190.209 113.18 190.217 113.407 190.233 113.626C190.248 113.83 190.272 114.017 190.303 114.19C190.335 114.362 190.374 114.495 190.421 114.589L190.61 114.87C190.673 114.948 190.776 115.027 190.917 115.105V115.34H186.243C186.133 115.121 186.046 114.862 185.983 114.565C185.936 114.268 185.896 113.971 185.865 113.673C185.849 113.376 185.834 113.094 185.818 112.828V112.148V111.021C185.818 110.552 185.794 110.161 185.747 109.848C185.7 109.535 185.613 109.292 185.487 109.12C185.377 108.932 185.228 108.807 185.039 108.745C184.866 108.666 184.645 108.627 184.378 108.627H183.221V115.34H178.83V98.5823ZM177.012 98.5823H167.025V115.34H177.224V111.772H171.416V108.44H176.657V105.013H171.416V102.15H177.012V98.5823ZM161.073 103.675C161.073 102.721 160.979 102.071 160.79 101.727C160.601 101.383 160.294 101.211 159.869 101.211C159.539 101.211 159.271 101.297 159.067 101.469C158.878 101.641 158.728 101.946 158.618 102.384C158.524 102.822 158.461 103.417 158.429 104.168C158.398 104.903 158.382 105.834 158.382 106.961C158.382 108.087 158.398 109.026 158.429 109.777C158.461 110.513 158.524 111.099 158.618 111.538C158.728 111.976 158.878 112.281 159.067 112.453C159.271 112.625 159.539 112.711 159.869 112.711C160.137 112.711 160.357 112.648 160.53 112.523C160.704 112.382 160.837 112.156 160.932 111.843C161.026 111.53 161.089 111.115 161.121 110.599C161.168 110.067 161.192 109.402 161.192 108.604H165.441V109.848C165.441 111.021 165.284 111.983 164.969 112.734C164.654 113.485 164.237 114.08 163.718 114.518C163.198 114.941 162.6 115.222 161.923 115.363C161.262 115.52 160.578 115.598 159.869 115.598C158.642 115.598 157.635 115.449 156.848 115.152C156.061 114.855 155.447 114.362 155.006 113.673C154.565 112.969 154.259 112.069 154.085 110.974C153.928 109.863 153.849 108.526 153.849 106.961C153.849 105.365 153.944 104.012 154.133 102.901C154.337 101.79 154.676 100.89 155.148 100.202C155.62 99.5132 156.242 99.0204 157.013 98.7231C157.784 98.4102 158.736 98.2537 159.869 98.2537C160.861 98.2537 161.703 98.3789 162.396 98.6292C163.088 98.8796 163.647 99.2394 164.072 99.7088C164.512 100.163 164.827 100.718 165.016 101.375C165.221 102.017 165.323 102.744 165.323 103.558V104.614H161.073V103.675ZM145.429 110.669V98.5823H141.038V109.566C141.038 110.74 141.164 111.717 141.416 112.5C141.668 113.282 142.03 113.908 142.502 114.377C142.99 114.847 143.588 115.167 144.296 115.34C145.02 115.512 145.839 115.598 146.751 115.598C147.68 115.598 148.498 115.512 149.207 115.34C149.915 115.167 150.505 114.847 150.977 114.377C151.465 113.908 151.835 113.282 152.087 112.5C152.339 111.717 152.465 110.74 152.465 109.566V98.5823H148.074V110.669C148.074 111.483 147.956 112.03 147.719 112.312C147.483 112.578 147.161 112.711 146.751 112.711C146.342 112.711 146.02 112.578 145.784 112.312C145.547 112.03 145.429 111.483 145.429 110.669ZM127.67 98.5823H134.045C135.32 98.5823 136.311 98.817 137.019 99.2864C137.728 99.7401 138.255 100.358 138.601 101.14C138.963 101.907 139.183 102.799 139.262 103.816C139.341 104.817 139.38 105.866 139.38 106.961C139.38 108.056 139.341 109.112 139.262 110.129C139.183 111.131 138.963 112.023 138.601 112.805C138.255 113.572 137.728 114.19 137.019 114.659C136.311 115.113 135.32 115.34 134.045 115.34H127.67V98.5823ZM132.062 112.195H132.935C133.36 112.195 133.698 112.14 133.95 112.03C134.202 111.905 134.391 111.655 134.517 111.279C134.658 110.904 134.745 110.372 134.777 109.683C134.824 108.995 134.847 108.087 134.847 106.961C134.847 105.834 134.824 104.927 134.777 104.238C134.745 103.55 134.658 103.018 134.517 102.643C134.391 102.267 134.202 102.024 133.95 101.915C133.698 101.79 133.36 101.727 132.935 101.727H132.062V112.195ZM118.637 109.777C118.605 109.026 118.589 108.087 118.589 106.961C118.589 105.834 118.605 104.903 118.637 104.168C118.668 103.417 118.731 102.822 118.826 102.384C118.936 101.946 119.085 101.641 119.274 101.469C119.479 101.297 119.746 101.211 120.077 101.211C120.407 101.211 120.667 101.297 120.856 101.469C121.06 101.641 121.21 101.946 121.304 102.384C121.415 102.822 121.485 103.417 121.517 104.168C121.548 104.903 121.564 105.834 121.564 106.961C121.564 108.087 121.548 109.026 121.517 109.777C121.485 110.513 121.415 111.099 121.304 111.538C121.21 111.976 121.06 112.281 120.856 112.453C120.667 112.625 120.407 112.711 120.077 112.711C119.746 112.711 119.479 112.625 119.274 112.453C119.085 112.281 118.936 111.976 118.826 111.538C118.731 111.099 118.668 110.513 118.637 109.777ZM114.364 102.971C114.159 104.066 114.057 105.396 114.057 106.961C114.057 108.526 114.159 109.863 114.364 110.974C114.568 112.069 114.907 112.969 115.379 113.673C115.851 114.362 116.473 114.855 117.244 115.152C118.015 115.449 118.959 115.598 120.077 115.598C121.194 115.598 122.139 115.449 122.91 115.152C123.681 114.855 124.303 114.362 124.775 113.673C125.247 112.969 125.585 112.069 125.79 110.974C125.995 109.863 126.097 108.526 126.097 106.961C126.097 105.396 125.995 104.066 125.79 102.971C125.585 101.86 125.247 100.961 124.775 100.272C124.303 99.568 123.681 99.0595 122.91 98.7466C122.139 98.418 121.194 98.2537 120.077 98.2537C118.959 98.2537 118.015 98.418 117.244 98.7466C116.473 99.0595 115.851 99.568 115.379 100.272C114.907 100.961 114.568 101.86 114.364 102.971ZM105.387 105.67H106.261C106.89 105.67 107.354 105.49 107.653 105.13C107.952 104.755 108.102 104.27 108.102 103.675C108.102 102.971 107.952 102.47 107.653 102.173C107.37 101.876 106.898 101.727 106.237 101.727H105.387V105.67ZM100.996 98.5823H107.866C108.7 98.5823 109.408 98.6918 109.991 98.9108C110.589 99.1299 111.069 99.4428 111.431 99.8496C111.809 100.241 112.076 100.71 112.233 101.258C112.407 101.805 112.493 102.4 112.493 103.042C112.493 104.168 112.265 105.076 111.809 105.764C111.352 106.452 110.62 106.875 109.613 107.031V107.078C110.667 107.172 111.391 107.54 111.785 108.181C112.178 108.823 112.375 109.707 112.375 110.833V112.265V112.946C112.375 113.18 112.383 113.407 112.399 113.626C112.414 113.83 112.438 114.017 112.47 114.19C112.501 114.362 112.54 114.495 112.588 114.589L112.776 114.87C112.839 114.948 112.942 115.027 113.083 115.105V115.34H108.409C108.299 115.121 108.212 114.862 108.149 114.565C108.102 114.268 108.063 113.971 108.031 113.673C108.015 113.376 108 113.094 107.984 112.828V112.148V111.021C107.984 110.552 107.96 110.161 107.913 109.848C107.866 109.535 107.779 109.292 107.653 109.12C107.543 108.932 107.394 108.807 107.205 108.745C107.032 108.666 106.811 108.627 106.544 108.627H105.387V115.34H100.996V98.5823ZM93.3679 105.811H92.5416V101.727H93.3679C94.5011 101.727 95.0677 102.408 95.0677 103.769C95.0677 104.473 94.9182 104.989 94.6191 105.318C94.3358 105.647 93.9187 105.811 93.3679 105.811ZM94.7372 98.5823H88.1505V115.34H92.5416V108.956H94.0761C95.8861 108.956 97.2554 108.526 98.184 107.665C99.1283 106.789 99.6005 105.482 99.6005 103.746C99.6005 103.01 99.506 102.33 99.3172 101.704C99.1283 101.078 98.8293 100.538 98.4201 100.084C98.0266 99.6149 97.5229 99.2472 96.9091 98.9813C96.2953 98.7153 95.5713 98.5823 94.7372 98.5823ZM68.6268 98.5823H75.0011C76.2759 98.5823 77.2675 98.817 77.9757 99.2864C78.684 99.7401 79.2112 100.358 79.5575 101.14C79.9194 101.907 80.1398 102.799 80.2185 103.816C80.2972 104.817 80.3365 105.866 80.3365 106.961C80.3365 108.056 80.2972 109.112 80.2185 110.129C80.1398 111.131 79.9194 112.023 79.5575 112.805C79.2112 113.572 78.684 114.19 77.9757 114.659C77.2675 115.113 76.2759 115.34 75.0011 115.34H68.6268V98.5823ZM73.018 112.195H73.8915C74.3164 112.195 74.6548 112.14 74.9066 112.03C75.1585 111.905 75.3473 111.655 75.4732 111.279C75.6149 110.904 75.7014 110.372 75.7329 109.683C75.7801 108.995 75.8037 108.087 75.8037 106.961C75.8037 105.834 75.7801 104.927 75.7329 104.238C75.7014 103.55 75.6149 103.018 75.4732 102.643C75.3473 102.267 75.1585 102.024 74.9066 101.915C74.6548 101.79 74.3164 101.727 73.8915 101.727H73.018V112.195ZM60.335 105.67H59.4615V101.727H60.3114C60.9725 101.727 61.4446 101.876 61.7279 102.173C62.027 102.47 62.1765 102.971 62.1765 103.675C62.1765 104.27 62.027 104.755 61.7279 105.13C61.4289 105.49 60.9646 105.67 60.335 105.67ZM61.9404 98.5823H55.0704V115.34H59.4615V108.627H60.6183C60.8859 108.627 61.1062 108.666 61.2794 108.745C61.4682 108.807 61.6178 108.932 61.7279 109.12C61.8538 109.292 61.9404 109.535 61.9876 109.848C62.0348 110.161 62.0584 110.552 62.0584 111.021V112.148V112.828C62.0742 113.094 62.0899 113.376 62.1057 113.673C62.1371 113.971 62.1765 114.268 62.2237 114.565C62.2867 114.862 62.3732 115.121 62.4834 115.34H67.1578V115.105C67.0162 115.027 66.9139 114.948 66.8509 114.87L66.6621 114.589C66.6148 114.495 66.5755 114.362 66.544 114.19C66.5125 114.017 66.4889 113.83 66.4732 113.626C66.4575 113.407 66.4496 113.18 66.4496 112.946V112.265V110.833C66.4496 109.707 66.2528 108.823 65.8594 108.181C65.4659 107.54 64.7419 107.172 63.6874 107.078V107.031C64.6947 106.875 65.4266 106.452 65.883 105.764C66.3394 105.076 66.5676 104.168 66.5676 103.042C66.5676 102.4 66.4811 101.805 66.3079 101.258C66.1505 100.71 65.883 100.241 65.5052 99.8496C65.1433 99.4428 64.6632 99.1299 64.0651 98.9108C63.4828 98.6918 62.7746 98.5823 61.9404 98.5823ZM45.9894 106.961C45.9894 108.087 46.0052 109.026 46.0367 109.777C46.0681 110.513 46.1311 111.099 46.2255 111.538C46.3357 111.976 46.4852 112.281 46.6741 112.453C46.8787 112.625 47.1463 112.711 47.4768 112.711C47.8073 112.711 48.067 112.625 48.2558 112.453C48.4604 112.281 48.61 111.976 48.7044 111.538C48.8146 111.099 48.8854 110.513 48.9169 109.777C48.9484 109.026 48.9641 108.087 48.9641 106.961C48.9641 105.834 48.9484 104.903 48.9169 104.168C48.8854 103.417 48.8146 102.822 48.7044 102.384C48.61 101.946 48.4604 101.641 48.2558 101.469C48.067 101.297 47.8073 101.211 47.4768 101.211C47.1463 101.211 46.8787 101.297 46.6741 101.469C46.4852 101.641 46.3357 101.946 46.2255 102.384C46.1311 102.822 46.0681 103.417 46.0367 104.168C46.0052 104.903 45.9894 105.834 45.9894 106.961ZM41.4567 106.961C41.4567 105.396 41.559 104.066 41.7636 102.971C41.9682 101.86 42.3066 100.961 42.7787 100.272C43.2509 99.568 43.8726 99.0595 44.6438 98.7466C45.415 98.418 46.3593 98.2537 47.4768 98.2537C48.5942 98.2537 49.5386 98.418 50.3098 98.7466C51.081 99.0595 51.7027 99.568 52.1748 100.272C52.647 100.961 52.9854 101.86 53.19 102.971C53.3946 104.066 53.4969 105.396 53.4969 106.961C53.4969 108.526 53.3946 109.863 53.19 110.974C52.9854 112.069 52.647 112.969 52.1748 113.673C51.7027 114.362 51.081 114.855 50.3098 115.152C49.5386 115.449 48.5942 115.598 47.4768 115.598C46.3593 115.598 45.415 115.449 44.6438 115.152C43.8726 114.855 43.2509 114.362 42.7787 113.673C42.3066 112.969 41.9682 112.069 41.7636 110.974C41.559 109.863 41.4567 108.526 41.4567 106.961ZM35.7173 101.727C35.9061 102.071 36.0006 102.721 36.0006 103.675V104.614H40.25V103.558C40.25 102.744 40.1477 102.017 39.9431 101.375C39.7543 100.718 39.4395 100.163 38.9988 99.7088C38.5739 99.2394 38.0151 98.8796 37.3226 98.6292C36.6301 98.3789 35.7881 98.2537 34.7965 98.2537C33.6633 98.2537 32.7111 98.4102 31.9399 98.7231C31.1687 99.0204 30.547 99.5132 30.0749 100.202C29.6027 100.89 29.2643 101.79 29.0597 102.901C28.8709 104.012 28.7764 105.365 28.7764 106.961C28.7764 108.526 28.8551 109.863 29.0125 110.974C29.1856 112.069 29.4925 112.969 29.9332 113.673C30.3739 114.362 30.9877 114.855 31.7747 115.152C32.5616 115.449 33.5689 115.598 34.7965 115.598C35.5048 115.598 36.1894 115.52 36.8505 115.363C37.5272 115.222 38.1253 114.941 38.6447 114.518C39.1641 114.08 39.5811 113.485 39.8959 112.734C40.2107 111.983 40.3681 111.021 40.3681 109.848V108.604H36.1186C36.1186 109.402 36.095 110.067 36.0478 110.599C36.0163 111.115 35.9533 111.53 35.8589 111.843C35.7645 112.156 35.6307 112.382 35.4576 112.523C35.2844 112.648 35.0641 112.711 34.7965 112.711C34.466 112.711 34.1985 112.625 33.9939 112.453C33.805 112.281 33.6555 111.976 33.5453 111.538C33.4509 111.099 33.3879 110.513 33.3564 109.777C33.325 109.026 33.3092 108.087 33.3092 106.961C33.3092 105.834 33.325 104.903 33.3564 104.168C33.3879 103.417 33.4509 102.822 33.5453 102.384C33.6555 101.946 33.805 101.641 33.9939 101.469C34.1985 101.297 34.466 101.211 34.7965 101.211C35.2215 101.211 35.5284 101.383 35.7173 101.727ZM17.468 98.5823H27.4543V102.15H21.8592V105.013H27.1002V108.44H21.8592V111.772H27.6668V115.34H17.468V98.5823ZM9.17623 105.67H8.30272V101.727H9.15262C9.81365 101.727 10.2858 101.876 10.5691 102.173C10.8682 102.47 11.0177 102.971 11.0177 103.675C11.0177 104.27 10.8682 104.755 10.5691 105.13C10.2701 105.49 9.80578 105.67 9.17623 105.67ZM10.7816 98.5823H3.91158V115.34H8.30272V108.627H9.45953C9.72709 108.627 9.94743 108.666 10.1206 108.745C10.3094 108.807 10.4589 108.932 10.5691 109.12C10.695 109.292 10.7816 109.535 10.8288 109.848C10.876 110.161 10.8996 110.552 10.8996 111.021V112.148V112.828C10.9154 113.094 10.9311 113.376 10.9468 113.673C10.9783 113.971 11.0177 114.268 11.0649 114.565C11.1278 114.862 11.2144 115.121 11.3246 115.34H15.999V115.105C15.8574 115.027 15.7551 114.948 15.6921 114.87L15.5032 114.589C15.456 114.495 15.4167 114.362 15.3852 114.19C15.3537 114.017 15.3301 113.83 15.3144 113.626C15.2986 113.407 15.2908 113.18 15.2908 112.946V112.265V110.833C15.2908 109.707 15.094 108.823 14.7006 108.181C14.3071 107.54 13.5831 107.172 12.5286 107.078V107.031C13.5359 106.875 14.2677 106.452 14.7242 105.764C15.1806 105.076 15.4088 104.168 15.4088 103.042C15.4088 102.4 15.3223 101.805 15.1491 101.258C14.9917 100.71 14.7242 100.241 14.3464 99.8496C13.9844 99.4428 13.5044 99.1299 12.9063 98.9108C12.324 98.6918 11.6158 98.5823 10.7816 98.5823Z" fill="white"/>
</g>
</svg>
