<svg width="25" height="24" viewBox="0 0 25 24" fill="none" xmlns="http://www.w3.org/2000/svg">
<g clip-path="url(#clip0_5_1043)">
<path d="M12.4954 0C5.88111 0 0.5 5.38151 0.5 11.9963C0.5 18.6152 5.88111 24 12.4954 24C19.1147 24 24.5 18.6152 24.5 11.9963C24.5 5.38151 19.1147 0 12.4954 0ZM6.40793 16.4042C7.79868 15.9809 9.22459 15.7662 10.6459 15.7662C13.0597 15.7662 15.4427 16.3779 17.5383 17.5359C17.663 17.6038 17.7763 17.8284 17.8271 18.108C17.878 18.3875 17.8577 18.6749 17.7761 18.8244C17.6731 19.0163 17.4641 19.1403 17.2436 19.1403C17.1343 19.1403 17.0382 19.1157 16.9421 19.0638C15.0183 18.0064 12.8412 17.4474 10.6459 17.4474C9.31957 17.4474 8.01751 17.6437 6.77698 18.0304C6.71655 18.0487 6.65439 18.0581 6.59222 18.0581C6.32059 18.0582 6.08484 17.8851 6.00576 17.6284C5.89898 17.2773 6.11986 16.4984 6.40793 16.4042ZM5.88466 11.9845C7.43474 11.5631 9.03668 11.3494 10.6459 11.3494C13.5389 11.3494 16.4117 12.0494 18.9555 13.3748C19.1338 13.4653 19.2652 13.6187 19.3254 13.8068C19.3865 13.9973 19.3681 14.2021 19.2728 14.3849C19.0458 14.8292 18.7804 15.1277 18.6124 15.1277C18.4932 15.1277 18.3783 15.0991 18.2638 15.0419C15.9016 13.8119 13.3387 13.1882 10.6459 13.1882C9.14803 13.1882 7.67852 13.3852 6.27951 13.7732C6.21444 13.7909 6.14763 13.7998 6.08114 13.7998C5.74459 13.7998 5.44801 13.5725 5.3602 13.2479C5.24775 12.8258 5.50467 12.0878 5.88466 11.9845ZM5.75065 9.09687C5.67959 9.11441 5.60696 9.12323 5.53473 9.12323C5.12799 9.12331 4.77554 8.84845 4.67765 8.4554C4.55498 7.95785 4.86627 7.37988 5.31708 7.26633C7.07033 6.83567 8.86317 6.61731 10.6459 6.61731C14.0968 6.61731 17.4018 7.39318 20.4702 8.92383C20.6833 9.02896 20.8422 9.21041 20.9177 9.43475C20.9932 9.65933 20.9766 9.90106 20.8711 10.1146C20.7274 10.4022 20.4169 10.7119 20.0747 10.7119C19.9428 10.7119 19.8073 10.6809 19.6873 10.6246C16.8687 9.21443 13.8268 8.49938 10.6459 8.49938C9.01127 8.49946 7.36431 8.70043 5.75065 9.09687Z" fill="white"/>
</g>
<defs>
<clipPath id="clip0_5_1043">
<rect width="24" height="24" fill="white" transform="translate(0.5)"/>
</clipPath>
</defs>
</svg>
